<svg id="Capa_1" enable-background="new 0 0 512 512" height="512" viewBox="0 0 512 512" width="512" xmlns="http://www.w3.org/2000/svg" xmlns:xlink="http://www.w3.org/1999/xlink"><linearGradient id="SVGID_1_" gradientUnits="userSpaceOnUse" x1="256" x2="256" y1="512" y2="0"><stop offset="0" stop-color="#addcff"/><stop offset=".5028" stop-color="#eaf6ff"/><stop offset="1" stop-color="#eaf6ff"/></linearGradient><linearGradient id="SVGID_2_" gradientUnits="userSpaceOnUse" x1="256" x2="256" y1="407" y2="105"><stop offset="0" stop-color="#00c0ff"/><stop offset="1" stop-color="#5558ff"/></linearGradient><g><g><circle cx="256" cy="256" fill="url(#SVGID_1_)" r="256"/></g><g><g><g><path d="m336.1 110.205v48.09h48.185zm-160.2 195.411 20.407-20.367c3.477-3.47 9.109-3.47 12.585 0l29.307 29.249 47.107-47.014c3.477-3.47 9.109-3.47 12.585 0l38.207 38.132v-94.028h-160.198zm62.3-76.263c14.723 0 26.7 11.953 26.7 26.647s-11.977 26.647-26.7 26.647-26.7-11.953-26.7-26.647 11.977-26.647 26.7-26.647zm6.293 103.986c-3.477 3.47-9.109 3.47-12.585 0l-29.308-29.249-26.7 26.647v22.969h160.2v-22.969l-44.5-44.412zm82.707-157.28c-4.919 0-8.9-3.973-8.9-8.882v-62.177h-186.9c-4.919 0-8.9 3.973-8.9 8.882v284.235c0 4.91 3.981 8.882 8.9 8.882h249.2c4.919 0 8.9-3.973 8.9-8.882v-222.058zm26.7 186.529c0 4.91-3.981 8.883-8.9 8.883h-178c-4.919 0-8.9-3.973-8.9-8.883v-159.882c0-4.909 3.981-8.882 8.9-8.882h178c4.919 0 8.9 3.973 8.9 8.882zm-115.7-97.706c4.902 0 8.9-3.981 8.9-8.882s-3.998-8.882-8.9-8.882-8.9 3.981-8.9 8.882 3.998 8.882 8.9 8.882z" fill="url(#SVGID_2_)"/></g></g></g></g></svg>