<?xml version="1.0" encoding="iso-8859-1"?>
<!-- Generator: Adobe Illustrator 19.0.0, SVG Export Plug-In . SVG Version: 6.00 Build 0)  -->
<svg version="1.1" id="Capa_1" xmlns="http://www.w3.org/2000/svg" xmlns:xlink="http://www.w3.org/1999/xlink" x="0px" y="0px"
	 viewBox="0 0 512 512" style="enable-background:new 0 0 512 512;" xml:space="preserve">
<circle style="fill:#FF3C3C;" cx="256" cy="256" r="256"/>
<path style="fill:#DE3434;" d="M322.69,123.122c-23.689,0-42.893,21.485-42.893,47.988c0,12.285,4.131,23.487,10.918,31.975
	l-0.207,0.207l32.89,32.89c-0.237,0.003-0.471,0.02-0.708,0.02c-17.082,0-32.508-7.798-43.445-20.27
	c-8.983,2.081-17.197,6.154-24.163,11.725l-36.592-36.592c-7.655-7.956-17.907-12.828-29.18-12.828
	c-23.689,0-42.893,21.485-42.893,47.988c0,12.285,4.131,23.487,10.918,31.975l-0.207,0.207l28.164,28.164l-4.127,4.127
	c-13.806-2.047-26.133-9.196-35.3-19.65c-26.949,6.243-47.042,30.382-47.042,59.23v42.761l138.264,138.264
	C243.333,511.759,249.638,512,256,512c128.701,0,235.205-94.978,253.281-218.663l-160.21-160.21l-0.085,0.085
	C341.723,126.894,332.603,123.122,322.69,123.122z"/>
<g>
	<path style="fill:#FFFFFF;" d="M413.176,275.163c0-28.848-20.093-52.987-47.042-59.231c-10.937,12.472-26.363,20.27-43.445,20.27
		s-32.508-7.798-43.445-20.27c-11.78,2.729-22.243,8.875-30.296,17.345c-0.811,8.126-3.013,15.801-6.33,22.756
		c27.636,8.82,48.616,32.666,53.292,61.891h117.264v-42.761H413.176z"/>
	<ellipse style="fill:#FFFFFF;" cx="322.69" cy="171.11" rx="42.893" ry="47.988"/>
	<path style="fill:#FFFFFF;" d="M189.31,291.317c-17.082,0-32.508-7.798-43.445-20.27c-26.949,6.243-47.042,30.382-47.042,59.23
		v42.761h180.973v-42.761c0-28.848-20.093-52.987-47.042-59.23C221.818,283.519,206.392,291.317,189.31,291.317z"/>
	<ellipse style="fill:#FFFFFF;" cx="189.31" cy="226.22" rx="42.893" ry="47.988"/>
</g>
<g>
</g>
<g>
</g>
<g>
</g>
<g>
</g>
<g>
</g>
<g>
</g>
<g>
</g>
<g>
</g>
<g>
</g>
<g>
</g>
<g>
</g>
<g>
</g>
<g>
</g>
<g>
</g>
<g>
</g>
</svg>
